# xmcd
#
# Track frame offsets:
#	150
#	15561
#	29221
#	41115
#	57557
#	70349
#	80452
#	92394
#	103863
#	117669
#
# Disc length: 1735 seconds
#
# Revision: 1
# Processed by: cddbd v1.5.2PL0 Copyright (c) Steve Scherf et al.
# Submitted via: audiograbber 1.83.01
#
DISCID=8c06c50a
DTITLE=Hank Thompson - Greatest Hits CD 2
DYEAR=2005
DGENRE=Country
TTITLE0=Country Bumkin
TTITLE1=I've Come AWful Close
TTITLE2=Oklahoma Hills
TTITLE3=The Mark Of A Heel
TTITLE4=Humpty Dumpty Heart
TTITLE5=Green Light
TTITLE6=Smokey The Bar
TTITLE7=Squaws Along The Yukon
TTITLE8=The Wild Side Of Life
TTITLE9=Next Time I Fall In Love
EXTD=
EXTT0=
EXTT1=
EXTT2=
EXTT3=
EXTT4=
EXTT5=
EXTT6=
EXTT7=
EXTT8=
EXTT9=
PLAYORDER=
